<svg width="10" height="13" viewBox="0 0 10 13" fill="none" xmlns="http://www.w3.org/2000/svg">
<path d="M5.47108 0.195262C5.34606 0.0702379 5.17649 0 4.99967 0C4.82286 0 4.65329 0.0702379 4.52827 0.195262L0.52827 4.19526C0.26792 4.45561 0.26792 4.87772 0.52827 5.13807C0.78862 5.39842 1.21073 5.39842 1.47108 5.13807L4.99967 1.60948L8.52827 5.13807C8.78862 5.39842 9.21073 5.39842 9.47108 5.13807C9.73143 4.87772 9.73143 4.45561 9.47108 4.19526L5.47108 0.195262Z" fill="#667185"/>
<path d="M5.47108 12.4714C5.34606 12.5964 5.17649 12.6667 4.99967 12.6667C4.82286 12.6667 4.65329 12.5964 4.52827 12.4714L0.52827 8.47141C0.26792 8.21105 0.26792 7.78895 0.52827 7.52859C0.78862 7.26825 1.21073 7.26825 1.47108 7.52859L4.99967 11.0572L8.52827 7.52859C8.78862 7.26825 9.21073 7.26825 9.47108 7.52859C9.73143 7.78895 9.73143 8.21105 9.47108 8.47141L5.47108 12.4714Z" fill="#667185"/>
</svg>
